<svg data-v-0dd9719b="" version="1.0" xmlns="http://www.w3.org/2000/svg" xmlns:xlink="http://www.w3.org/1999/xlink" width="100%" height="100%" viewBox="0 0 340.000000 250.000000" preserveAspectRatio="xMidYMid meet" color-interpolation-filters="sRGB" style="margin: auto;"> <rect data-v-0dd9719b="" x="0" y="0" width="100%" height="100%" fill="#fff" fill-opacity="1" class="background"></rect> <rect data-v-0dd9719b="" x="0" y="0" width="100%" height="100%" fill="url(#watermark)" fill-opacity="1" class="watermarklayer"></rect> <g data-v-0dd9719b="" fill="#333" class="iconblsvg-g iconsvg" transform="translate(63.09326171875,111.07618713378906)"><g class="tp-name"><g data-gra="path-name" transform="translate(0, 2.3216608043719607)"><g transform="scale(1)"><path d="M12.08-7.92L12.62-10.31 21.82-10.31 19.76 0 15.57 0 14.89-2.27 14.75-2.27Q13.82-1.21 12.56-0.46 11.3 0.28 9.28 0.28L9.28 0.28Q7.71 0.28 6.27-0.23 4.83-0.75 3.71-1.87 2.59-2.99 1.92-4.8 1.24-6.61 1.24-9.17L1.24-9.17Q1.24-11.94 2.1-14.43 2.95-16.92 4.66-18.82 6.36-20.72 8.92-21.82 11.48-22.92 14.89-22.92L14.89-22.92Q17.52-22.92 19.47-22.32 21.43-21.71 23.17-20.97L23.17-20.97 21.82-14.07 15.81-14.07Q15.85-14.46 15.92-15 15.99-15.53 16.03-16.12 16.06-16.7 16.1-17.27 16.13-17.84 16.13-18.27L16.13-18.27Q16.13-18.55 16.1-18.92 16.06-19.3 15.92-19.65 15.78-20.01 15.49-20.24 15.21-20.47 14.68-20.47L14.68-20.47Q13.75-20.47 12.99-19.71 12.23-18.94 11.62-17.68 11.02-16.42 10.57-14.82 10.13-13.22 9.83-11.57 9.52-9.92 9.36-8.33 9.2-6.75 9.2-5.58L9.2-5.58Q9.2-5.22 9.24-4.69 9.28-4.16 9.47-3.64 9.67-3.13 10.04-2.75 10.41-2.38 11.12-2.38L11.12-2.38Q12.3-2.38 13.4-3.66 14.5-4.94 15.07-7.92L15.07-7.92 12.08-7.92ZM34.9-7.92L35.43-10.31 44.64-10.31 42.57 0 38.38 0 37.71-2.27 37.56-2.27Q36.64-1.21 35.38-0.46 34.12 0.28 32.09 0.28L32.09 0.28Q30.53 0.28 29.09-0.23 27.65-0.75 26.53-1.87 25.41-2.99 24.73-4.8 24.06-6.61 24.06-9.17L24.06-9.17Q24.06-11.94 24.91-14.43 25.77-16.92 27.47-18.82 29.18-20.72 31.74-21.82 34.29-22.92 37.71-22.92L37.71-22.92Q40.34-22.92 42.29-22.32 44.24-21.71 45.99-20.97L45.99-20.97 44.64-14.07 38.63-14.07Q38.67-14.46 38.74-15 38.81-15.53 38.84-16.12 38.88-16.7 38.91-17.27 38.95-17.84 38.95-18.27L38.95-18.27Q38.95-18.55 38.91-18.92 38.88-19.3 38.74-19.65 38.59-20.01 38.31-20.24 38.03-20.47 37.49-20.47L37.49-20.47Q36.57-20.47 35.8-19.71 35.04-18.94 34.44-17.68 33.83-16.42 33.39-14.82 32.94-13.22 32.64-11.57 32.34-9.92 32.18-8.33 32.02-6.75 32.02-5.58L32.02-5.58Q32.02-5.22 32.06-4.69 32.09-4.16 32.29-3.64 32.48-3.13 32.85-2.75 33.23-2.38 33.94-2.38L33.94-2.38Q35.11-2.38 36.21-3.66 37.31-4.94 37.88-7.92L37.88-7.92 34.9-7.92ZM56.36-22.57L59.38-15.46 64.82-22.57 69.09-22.57 60.66-12.44 65.96 0 57.18 0 54.16-7.07 48.69 0 44.42 0 52.81-10.27 47.59-22.57 56.36-22.57Z" transform="translate(-1.2400000095367432, 22.920000076293945)"></path></g></g> <g transform="translate(70.8499984741211, 0)"><g><g class="imagesvg"><g><rect fill="#333" fill-opacity="0" stroke-width="2" x="0" y="0" width="27.413481725369063" height="27.84762621810939" class="image-rect"></rect> <svg x="0" y="0" width="27.413481725369063" height="27.84762621810939" filtersec="colorsb704304557" class="image-svg-svg primary" style="overflow: visible;"><svg xmlns="http://www.w3.org/2000/svg" viewBox="0.0015254020690917969 0 99.3042984008789 100.8768081665039"><title>资源 82</title><path d="M55.37 0a24.55 24.55 0 0 0-.57 13.76c.79 3.31 2.77 6.06 4.4 8.94Q78 56 96.94 89.21c.57 1 1.17 2 1.67 3.07 1.91 4-.27 8.25-4.61 8.46-5.49.25-11 .1-16.49 0-2.82-.08-4.68-1.78-6.05-4.22Q58.08 72.61 44.63 48.79c-1.92-3.4-4.06-6.67-5.15-10.51A19.86 19.86 0 0 1 41.3 22.8c4.07-7.36 8.55-14.49 12.87-21.71.24-.4.41-.94 1.2-1.09z" fill="#258bfa"></path><path d="M36.47 32.19a42 42 0 0 0-1.19 5 21.44 21.44 0 0 0 2.81 13.44q11.05 19.26 22 38.6c1.48 2.59 3.24 5.19 1.46 8.37s-4.95 2.84-7.94 2.82l-10-.08A6.13 6.13 0 0 1 38 96.93q-6.45-11.54-13-23c-4.59-8.14-4.36-16.13.55-24.1 3.32-5.38 6.4-10.9 9.59-16.36.29-.49.62-1 .93-1.42z" fill="#fc417f"></path><path d="M19.69 60.58C16.19 69 18 76.15 22.41 83c1.7 2.66 3.19 5.47 4.66 8.26 2.38 4.54-.16 8.74-5.28 8.76s-10.49 0-15.73-.07c-4.89-.13-7.57-4.28-5.16-8.5 5.78-10.11 11.83-20.07 17.78-30.08a7.48 7.48 0 0 1 1.01-.79z" fill="#fbc64d"></path></svg></svg> <!----></g></g></g></g> <g data-gra="path-name-1" fill="#333" transform="translate(101.26348114013672, 2.3216608043719607)"><g transform="scale(1)"><path d="M12.08-7.92L12.62-10.31 21.82-10.31 19.76 0 15.57 0 14.89-2.27 14.75-2.27Q13.82-1.21 12.56-0.46 11.3 0.28 9.28 0.28L9.28 0.28Q7.71 0.28 6.27-0.23 4.83-0.75 3.71-1.87 2.59-2.99 1.92-4.8 1.24-6.61 1.24-9.17L1.24-9.17Q1.24-11.94 2.1-14.43 2.95-16.92 4.66-18.82 6.36-20.72 8.92-21.82 11.48-22.92 14.89-22.92L14.89-22.92Q17.52-22.92 19.47-22.32 21.43-21.71 23.17-20.97L23.17-20.97 21.82-14.07 15.81-14.07Q15.85-14.46 15.92-15 15.99-15.53 16.03-16.12 16.06-16.7 16.1-17.27 16.13-17.84 16.13-18.27L16.13-18.27Q16.13-18.55 16.1-18.92 16.06-19.3 15.92-19.65 15.78-20.01 15.49-20.24 15.21-20.47 14.68-20.47L14.68-20.47Q13.75-20.47 12.99-19.71 12.23-18.94 11.62-17.68 11.02-16.42 10.57-14.82 10.13-13.22 9.83-11.57 9.52-9.92 9.36-8.33 9.2-6.75 9.2-5.58L9.2-5.58Q9.2-5.22 9.24-4.69 9.28-4.16 9.47-3.64 9.67-3.13 10.04-2.75 10.41-2.38 11.12-2.38L11.12-2.38Q12.3-2.38 13.4-3.66 14.5-4.94 15.07-7.92L15.07-7.92 12.08-7.92ZM44.96-17.2L44.96-17.2Q44.96-15.1 43.78-13.33 42.61-11.55 39.91-10.63L39.91-10.63 44.03 0 36.11 0 32.98-9.84 32.59-9.84 30.49 0 22.82 0 27.61-22.57 36.96-22.57Q38.59-22.57 40.05-22.37 41.51-22.18 42.59-21.59 43.68-21 44.32-19.95 44.96-18.91 44.96-17.2ZM33.05-12.12L34.72-12.12Q35.64-12.12 36.3-12.74 36.96-13.36 37.37-14.25 37.78-15.14 37.95-16.15 38.13-17.16 38.13-17.91L38.13-17.91Q38.13-18.84 37.81-19.49 37.49-20.15 36.43-20.15L36.43-20.15 34.83-20.15 33.05-12.12ZM59.53-22.92L59.53-22.92Q62.58-22.92 64.48-22.14 66.38-21.36 67.49-19.72L67.49-19.72Q68.2-18.62 68.59-17.24 68.98-15.85 68.98-14.04L68.98-14.04Q68.98-12.47 68.69-10.91 68.41-9.35 67.9-7.91 67.38-6.47 66.65-5.21 65.92-3.94 65.03-2.99L65.03-2.99Q63.36-1.17 61.18-0.44 58.99 0.28 55.79 0.28L55.79 0.28Q52.7 0.28 50.82-0.36 48.94-1 47.83-2.42L47.83-2.42Q47.05-3.41 46.61-4.94 46.16-6.47 46.16-8.78L46.16-8.78Q46.16-12.72 47.57-15.83 48.97-18.94 51.57-20.75L51.57-20.75Q53.13-21.86 55.05-22.39 56.97-22.92 59.53-22.92ZM55.51-2.2L55.51-2.2Q56.33-2.2 57.06-2.93 57.78-3.66 58.41-4.89 59.03-6.11 59.54-7.68 60.06-9.24 60.41-10.91 60.77-12.58 60.97-14.23 61.16-15.89 61.16-17.24L61.16-17.24Q61.16-19.08 60.79-19.78 60.41-20.47 59.7-20.47L59.7-20.47Q58.89-20.47 58.14-19.76 57.39-19.05 56.74-17.86 56.08-16.67 55.56-15.12 55.05-13.58 54.68-11.94 54.3-10.31 54.11-8.71 53.91-7.11 53.91-5.76L53.91-5.76Q53.91-3.73 54.36-2.97 54.8-2.2 55.51-2.2ZM81.88-22.57L78.75-8.07Q78.57-7.29 78.47-6.72 78.36-6.15 78.36-5.65L78.36-5.65Q78.36-4.41 79.23-3.66 80.1-2.91 81.81-2.91L81.81-2.91Q83.05-2.91 83.85-3.34 84.65-3.77 85.17-4.48 85.68-5.19 85.98-6.11 86.29-7.04 86.5-8.07L86.5-8.07 89.52-22.57 92.75-22.57 89.66-8Q89.31-6.29 88.63-4.8 87.96-3.31 86.69-2.17 85.43-1.03 83.44-0.37 81.45 0.28 78.5 0.28L78.5 0.28Q74.42 0.28 72.46-1.05 70.51-2.38 70.51-5.15L70.51-5.15Q70.51-6.4 70.83-8.32 71.15-10.23 71.64-12.47L71.64-12.47 73.81-22.57 81.88-22.57ZM101.43-9.74L103.06-9.74Q104.13-9.74 104.85-10.63 105.58-11.51 106.06-12.79 106.54-14.07 106.76-15.46 106.97-16.85 106.97-17.88L106.97-17.88Q106.97-18.84 106.65-19.49 106.33-20.15 105.26-20.15L105.26-20.15 103.66-20.15 101.43-9.74ZM102.95-7.46L100.93-7.46 99.33 0 91.65 0 96.45-22.57 104.66-22.57Q106.69-22.57 108.36-22.35 110.03-22.14 111.23-21.5 112.44-20.86 113.12-19.67 113.79-18.48 113.79-16.49L113.79-16.49Q113.79-14.64 113.21-12.99 112.62-11.34 111.32-10.11 110.03-8.88 107.96-8.17 105.9-7.46 102.95-7.46L102.95-7.46Z" transform="translate(-1.2400000095367432, 22.920000076293945)"></path></g></g></g> <!----></g><defs v-gra="od"></defs></svg>